# xmcd CD database file
#
# Track frame offsets:
#	150
#	93295
#	190722
#	288367
#
# Disc length: 4687 seconds
#
# Revision: 0
# Processed by: cddbd v1.5.1PL2 Copyright (c) Steve Scherf et al.
# Submitted via: CDex 1.51
#
DISCID=2c124d04
DTITLE=Anugana - Like the Ocean
DYEAR=1997
DGENRE=New Age
TTITLE0=Swaying in the Wind-Anugama
TTITLE1=Diving into the Unknown
TTITLE2=Like the Ocean - three
TTITLE3=Like the Ocean - four
EXTD=YEAR: 1997
EXTT0=
EXTT1=
EXTT2=
EXTT3=
PLAYORDER=
